<svg xmlns="http://www.w3.org/2000/svg" viewBox="0 0 512 512" role="img" aria-label="Dent Co Future favicon">
  <defs>
    <linearGradient id="bg" x1="0%" y1="0%" x2="100%" y2="100%">
      <stop offset="0%" stop-color="#0ea5e9" />
      <stop offset="100%" stop-color="#14b8a6" />
    </linearGradient>
  </defs>
  <rect width="512" height="512" rx="120" fill="url(#bg)" />
  <path
    d="M256 86c-72 0-122 38-122 110 0 49 24 78 42 103 11 16 18 37 22 66 7 49 32 77 58 77 17 0 28-8 37-34l9-26 9 26c9 26 20 34 37 34 26 0 51-28 58-77 4-29 11-50 22-66 18-25 42-54 42-103 0-72-50-110-122-110-34 0-61 13-78 33-17-20-44-33-78-33z"
    fill="#ffffff"
  />
  <path
    d="M256 160c-20-22-46-34-80-34-35 0-69 15-69 59 0 44 20 66 38 89 15 21 26 47 31 82 4 30 15 46 28 46 7 0 10-4 15-19l19-58 18 58c5 15 8 19 15 19 13 0 24-16 28-46 5-35 16-61 31-82 18-23 38-45 38-89 0-44-34-59-69-59-34 0-60 12-80 34z"
    fill="#e0f2fe"
    opacity="0.7"
  />
</svg>
